<svg id="Livello_1" data-name="Livello 1" xmlns="http://www.w3.org/2000/svg" viewBox="0 0 512 512"><title>dual-sim</title><rect width="512" height="512" fill="#5580f9"/><rect x="160.9" y="58.8" width="190.2" height="394.39" rx="2.47" fill="#fff"/><path d="M351.39,453.49H160.61v-395H351.39Zm-.58-394.4H161.19V452.91H350.81Z" fill="#fff"/><path d="M336.8,48.59H175.2a19.69,19.69,0,0,0-19.69,19.7V443.71a19.69,19.69,0,0,0,19.69,19.7H336.8a19.69,19.69,0,0,0,19.69-19.7V68.29A19.69,19.69,0,0,0,336.8,48.59Zm14.3,388.28a16.33,16.33,0,0,1-16.33,16.33H177.23a16.33,16.33,0,0,1-16.33-16.33V75.13A16.33,16.33,0,0,1,177.23,58.8H239.9a14.47,14.47,0,0,1,1.57.73,16.14,16.14,0,0,1,3.44,3.06l.7,1.17c.55.91,1.45,3.72,1.61,4a10,10,0,0,0,8.54,4.77h.47l.42,0,.26,0a10,10,0,0,0,7.4-4.7,3.12,3.12,0,0,0,.28-.66c.14-.48,2.5-4.49,2.5-4.49a12.66,12.66,0,0,1,3-2.74V59.8a14.33,14.33,0,0,1,2-1h62.68A16.33,16.33,0,0,1,351.1,75.13Z"/><path d="M271.29,171.61l28.2-.93a2.8,2.8,0,0,1,2.05.81l79.66,79.66a2.79,2.79,0,0,1,0,3.93L241.76,394.51a2.77,2.77,0,0,1-3.93,0l-106-106a2.78,2.78,0,0,1,0-3.92L244.41,171.91a2.8,2.8,0,0,1,2-.81l24.72.51Z" fill="#303f9f"/><path d="M239.8,395.87a3.31,3.31,0,0,1-2.35-1l-106-106a3.31,3.31,0,0,1,0-4.7L244,171.53a3.44,3.44,0,0,1,2.42-1l24.72.51h.12l28.19-.93a3.4,3.4,0,0,1,2.46,1l79.65,79.65a3.32,3.32,0,0,1,0,4.71L242.15,394.9A3.31,3.31,0,0,1,239.8,395.87Zm6.57-224.22a2.23,2.23,0,0,0-1.58.65L132.17,284.92a2.25,2.25,0,0,0,0,3.16L238.22,394.13a2.24,2.24,0,0,0,3.16,0L380.81,254.69a2.23,2.23,0,0,0,0-3.15l-79.66-79.66a2.24,2.24,0,0,0-1.65-.65l-28.19.93h-.18l-24.71-.51Z" fill="#303f9f"/><path d="M240.78,366.36a7.27,7.27,0,0,1-5.17-2.14l-31.38-31.38a7.32,7.32,0,0,1,0-10.34l41.08-41.08a7.32,7.32,0,0,1,10.34,0L287,312.79a7.33,7.33,0,0,1,0,10.35L246,364.22A7.27,7.27,0,0,1,240.78,366.36Zm9.7-85.71a5.92,5.92,0,0,0-4.2,1.74L205.2,323.47a6,6,0,0,0,0,8.4l31.38,31.38a6,6,0,0,0,8.4,0l41.08-41.08a5.94,5.94,0,0,0,0-8.4l-31.37-31.38A5.94,5.94,0,0,0,250.48,280.65Z" fill="#fff"/><path d="M258.73,320.41a11.66,11.66,0,0,1-8.25-19.91l12.13-12.13,16.49,16.5L267,317A11.65,11.65,0,0,1,258.73,320.41Zm3.88-30.09-11.16,11.15A10.3,10.3,0,0,0,266,316l11.15-11.16Z" fill="#fff"/><path d="M273.77,336.12a.92.92,0,0,1-.66-.24A11.66,11.66,0,0,1,266,316l12.12-12.13,1.94,1.94a.69.69,0,0,1,0,1,.68.68,0,0,1-1,0l-1-1L267,317a10.3,10.3,0,0,0,6.37,17.53.88.88,0,0,1,.6.25.68.68,0,0,1-.18,1.34Z" fill="#fff"/><path d="M227.68,356.29,211.19,339.8l12.13-12.13a11.66,11.66,0,0,1,16.49,16.49ZM213.13,339.8l14.55,14.55,11.16-11.16a10.29,10.29,0,1,0-14.55-14.55Z" fill="#fff"/><path d="M228.17,355.81l-1-1,11.64-11.65a11.67,11.67,0,0,1,19.91,7.94l-1.38,0a10.29,10.29,0,0,0-17.56-7Z" fill="#fff"/><path d="M212.64,340.28l-1-1,11.65-11.64A10.3,10.3,0,0,0,218,310.28l.26-1.35a11.67,11.67,0,0,1,6.07,19.71Z" fill="#fff"/><path d="M270.31,117.6l28.19-.93a2.78,2.78,0,0,1,2.06.82l79.66,79.65a2.79,2.79,0,0,1,0,3.93L240.78,340.51a2.79,2.79,0,0,1-3.93,0l-106-106a2.79,2.79,0,0,1,0-3.93L243.42,117.91a2.81,2.81,0,0,1,2-.82l24.71.51A.75.75,0,0,0,270.31,117.6Z" fill="#ff4081"/><path d="M238.82,341.87a3.32,3.32,0,0,1-2.36-1l-106-106a3.28,3.28,0,0,1-1-2.35,3.32,3.32,0,0,1,1-2.35L243,117.52a3.3,3.3,0,0,1,2.42-1l24.72.51h.11l28.19-.93a3.35,3.35,0,0,1,2.47,1l79.65,79.66a3.31,3.31,0,0,1,0,4.7L241.17,340.89A3.32,3.32,0,0,1,238.82,341.87Zm6.57-224.23a2.28,2.28,0,0,0-1.58.65L131.19,230.92a2.23,2.23,0,0,0,0,3.15L237.24,340.12a2.28,2.28,0,0,0,3.15,0L379.83,200.68a2.23,2.23,0,0,0,0-3.15l-79.66-79.66a2.24,2.24,0,0,0-1.65-.65l-28.19.93h-.18l-24.72-.51Z" fill="#ff4081"/><path d="M239.8,312.21a7.16,7.16,0,0,1-5.08-2.1l-31.37-31.37a7.18,7.18,0,0,1,0-10.15l41.08-41.08a7.18,7.18,0,0,1,10.15,0L286,258.89A7.18,7.18,0,0,1,286,269l-41.08,41.07A7.14,7.14,0,0,1,239.8,312.21Zm9.7-85.7a6.08,6.08,0,0,0-4.3,1.77l-41.08,41.08a6.09,6.09,0,0,0,0,8.6l31.38,31.38a6.08,6.08,0,0,0,8.6,0l41.08-41.08a6.08,6.08,0,0,0,0-8.6L253.8,228.28A6.06,6.06,0,0,0,249.5,226.51Z" fill="#303f9f"/><path d="M257.75,266.27a11.53,11.53,0,0,1-8.15-19.68l12-12,16.3,16.3-12,12A11.44,11.44,0,0,1,257.75,266.27Zm3.88-30.16-11.26,11.26a10.43,10.43,0,0,0,14.75,14.75l11.26-11.26Z" fill="#303f9f"/><path d="M272.79,282a.81.81,0,0,1-.61-.23,11.53,11.53,0,0,1-7.06-19.62l12-12,1.84,1.84-.77.77-1.07-1.06L265.9,262.89a10.44,10.44,0,0,0,6.46,17.77.8.8,0,0,1,.62.33.29.29,0,0,0-.2-.11Z" fill="#303f9f"/><path d="M226.7,302.09l-16.3-16.3,12-12a11.54,11.54,0,0,1,16.3,0h0a11.54,11.54,0,0,1,0,16.3ZM212,285.79l14.75,14.75L238,289.29a10.44,10.44,0,0,0,0-14.75h0a10.42,10.42,0,0,0-14.75,0Z" fill="#303f9f"/><path d="M227.09,301.7l-.78-.77L238,289.29a11.52,11.52,0,0,1,16.29,0,11.38,11.38,0,0,1,3.37,7.83l-1.09,0a10.43,10.43,0,0,0-17.8-7.09Z" fill="#303f9f"/><path d="M211.56,286.18l-.77-.78,11.64-11.64A10.43,10.43,0,0,0,217,256.14l.2-1.08a11.54,11.54,0,0,1,6,19.48Z" fill="#303f9f"/><path d="M159,297.29,151,289.24l1.37-1.37,8.34-.36a14.78,14.78,0,0,0,2.84-.38,3.75,3.75,0,0,0,1.66-.93,2.78,2.78,0,0,0,.9-1.86,2.35,2.35,0,0,0-.77-1.83,2.71,2.71,0,0,0-2.09-.91,3.29,3.29,0,0,0-2.16,1.09l-2-2a5.5,5.5,0,0,1,2.47-1.47,4.79,4.79,0,0,1,2.78.06,6.3,6.3,0,0,1,2.62,1.65,5.7,5.7,0,0,1,1.88,3.62,4.29,4.29,0,0,1-1.42,3.43,5.76,5.76,0,0,1-2.38,1.38,14.8,14.8,0,0,1-3.89.57l-6.06.21,5.56,5.56Z" fill="#fff"/><path d="M155.83,237.19l-2-2,9.62-9.62-3.93-1.94L161.2,222l6.4,2.95.25.25Z" fill="#fff"/></svg>