<?xml version="1.0" encoding="UTF-8" standalone="no"?>
<svg
   xmlns:dc="http://purl.org/dc/elements/1.1/"
   xmlns:cc="http://creativecommons.org/ns#"
   xmlns:rdf="http://www.w3.org/1999/02/22-rdf-syntax-ns#"
   xmlns:svg="http://www.w3.org/2000/svg"
   xmlns="http://www.w3.org/2000/svg"
   xmlns:sodipodi="http://sodipodi.sourceforge.net/DTD/sodipodi-0.dtd"
   xmlns:inkscape="http://www.inkscape.org/namespaces/inkscape"
   id="Livello_1"
   data-name="Livello 1"
   viewBox="0 0 512 512"
   version="1.1"
   sodipodi:docname="ic_launcher.svg"
   inkscape:version="0.92.4 (5da689c313, 2019-01-14)">
  <metadata
     id="metadata3908">
    <rdf:RDF>
      <cc:Work
         rdf:about="">
        <dc:format>image/svg+xml</dc:format>
        <dc:type
           rdf:resource="http://purl.org/dc/dcmitype/StillImage" />
        <dc:title>dual_white</dc:title>
      </cc:Work>
    </rdf:RDF>
  </metadata>
  <defs
     id="defs3906" />
  <sodipodi:namedview
     pagecolor="#ffffff"
     bordercolor="#666666"
     borderopacity="1"
     objecttolerance="10"
     gridtolerance="10"
     guidetolerance="10"
     inkscape:pageopacity="0"
     inkscape:pageshadow="2"
     inkscape:window-width="1920"
     inkscape:window-height="1054"
     id="namedview3904"
     showgrid="false"
     inkscape:zoom="1.6855469"
     inkscape:cx="2.3731262"
     inkscape:cy="256"
     inkscape:window-x="0"
     inkscape:window-y="0"
     inkscape:window-maximized="1"
     inkscape:current-layer="Livello_1" />
  <title
     id="title3857">dual_white</title>
  <path
     d="M270.79,171.11l28.2-.93A2.8,2.8,0,0,1,301,171l79.66,79.66a2.79,2.79,0,0,1,0,3.93L241.26,394a2.77,2.77,0,0,1-3.93,0l-106-106a2.78,2.78,0,0,1,0-3.92L243.91,171.41a2.8,2.8,0,0,1,2-.81l24.72.51Z"
     transform="translate(0.5 0.5)"
     fill="#303f9f"
     id="path3867" />
  <path
     d="M239.3,395.37a3.31,3.31,0,0,1-2.35-1l-106-106a3.31,3.31,0,0,1,0-4.7L243.52,171a3.44,3.44,0,0,1,2.42-1l24.72.51h.12l28.19-.93a3.4,3.4,0,0,1,2.46,1l79.65,79.65a3.32,3.32,0,0,1,0,4.71L241.65,394.4A3.31,3.31,0,0,1,239.3,395.37Zm6.57-224.22a2.23,2.23,0,0,0-1.58.65L131.67,284.42a2.25,2.25,0,0,0,0,3.16L237.72,393.63a2.24,2.24,0,0,0,3.16,0L380.31,254.19a2.23,2.23,0,0,0,0-3.15l-79.66-79.66a2.24,2.24,0,0,0-1.65-.65l-28.19.93h-.18l-24.71-.51Z"
     transform="translate(0.5 0.5)"
     fill="#303f9f"
     id="path3869" />
  <path
     d="M240.28,365.86a7.27,7.27,0,0,1-5.17-2.14l-31.38-31.38a7.32,7.32,0,0,1,0-10.34l41.08-41.08a7.32,7.32,0,0,1,10.34,0l31.38,31.37a7.33,7.33,0,0,1,0,10.35l-41.08,41.08A7.27,7.27,0,0,1,240.28,365.86Zm9.7-85.71a5.92,5.92,0,0,0-4.2,1.74L204.7,323a6,6,0,0,0,0,8.4l31.38,31.38a6,6,0,0,0,8.4,0l41.08-41.08a5.94,5.94,0,0,0,0-8.4l-31.37-31.38A5.94,5.94,0,0,0,250,280.15Z"
     transform="translate(0.5 0.5)"
     fill="#fff"
     id="path3871" />
  <path
     d="M258.23,319.91A11.66,11.66,0,0,1,250,300l12.13-12.13,16.49,16.5L266.48,316.5A11.65,11.65,0,0,1,258.23,319.91Zm3.88-30.09L251,301a10.3,10.3,0,0,0,14.56,14.56l11.15-11.16Z"
     transform="translate(0.5 0.5)"
     fill="#fff"
     id="path3873" />
  <path
     d="M273.27,335.62a.92.92,0,0,1-.66-.24,11.66,11.66,0,0,1-7.1-19.85l12.12-12.13,1.94,1.94a.69.69,0,0,1,0,1,.68.68,0,0,1-1,0l-1-1L266.48,316.5A10.3,10.3,0,0,0,272.85,334a.88.88,0,0,1,.6.25.68.68,0,0,1-.18,1.34Z"
     transform="translate(0.5 0.5)"
     fill="#fff"
     id="path3875" />
  <path
     d="M227.18,355.79,210.69,339.3l12.13-12.13a11.66,11.66,0,0,1,16.49,16.49ZM212.63,339.3l14.55,14.55,11.16-11.16a10.29,10.29,0,1,0-14.55-14.55Z"
     transform="translate(0.5 0.5)"
     fill="#fff"
     id="path3877" />
  <path
     d="M227.67,355.31l-1-1,11.64-11.65a11.67,11.67,0,0,1,19.91,7.94l-1.38,0a10.29,10.29,0,0,0-17.56-7Z"
     transform="translate(0.5 0.5)"
     fill="#fff"
     id="path3879" />
  <path
     d="M212.14,339.78l-1-1,11.65-11.64a10.3,10.3,0,0,0-5.36-17.39l.26-1.35a11.67,11.67,0,0,1,6.07,19.71Z"
     transform="translate(0.5 0.5)"
     fill="#fff"
     id="path3881" />
  <path
     d="M269.81,117.1l28.19-.93a2.78,2.78,0,0,1,2.06.82l79.66,79.65a2.79,2.79,0,0,1,0,3.93L240.28,340a2.79,2.79,0,0,1-3.93,0l-106-106a2.79,2.79,0,0,1,0-3.93L242.92,117.41a2.81,2.81,0,0,1,2-.82l24.71.51A.75.75,0,0,0,269.81,117.1Z"
     transform="translate(0.5 0.5)"
     fill="#ff4081"
     id="path3883" />
  <path
     d="M238.32,341.37a3.32,3.32,0,0,1-2.36-1l-106-106a3.28,3.28,0,0,1-1-2.35,3.32,3.32,0,0,1,1-2.35L242.54,117a3.3,3.3,0,0,1,2.42-1l24.72.51h.11l28.19-.93a3.35,3.35,0,0,1,2.47,1l79.65,79.66a3.31,3.31,0,0,1,0,4.7L240.67,340.39A3.32,3.32,0,0,1,238.32,341.37Zm6.57-224.23a2.28,2.28,0,0,0-1.58.65L130.69,230.42a2.23,2.23,0,0,0,0,3.15L236.74,339.62a2.28,2.28,0,0,0,3.15,0L379.33,200.18a2.23,2.23,0,0,0,0-3.15l-79.66-79.66a2.24,2.24,0,0,0-1.65-.65l-28.19.93h-.18l-24.72-.51Z"
     transform="translate(0.5 0.5)"
     fill="#ff4081"
     id="path3885" />
  <path
     d="M239.3,311.71a7.16,7.16,0,0,1-5.08-2.1l-31.37-31.37a7.18,7.18,0,0,1,0-10.15L243.93,227a7.18,7.18,0,0,1,10.15,0l31.37,31.38a7.18,7.18,0,0,1,0,10.15l-41.08,41.07A7.14,7.14,0,0,1,239.3,311.71ZM249,226a6.08,6.08,0,0,0-4.3,1.77l-41.08,41.08a6.09,6.09,0,0,0,0,8.6L235,308.84a6.08,6.08,0,0,0,8.6,0l41.08-41.08a6.08,6.08,0,0,0,0-8.6L253.3,227.78A6.06,6.06,0,0,0,249,226Z"
     transform="translate(0.5 0.5)"
     fill="#303f9f"
     id="path3887" />
  <path
     d="M257.25,265.77a11.53,11.53,0,0,1-8.15-19.68l12-12,16.3,16.3-12,12A11.44,11.44,0,0,1,257.25,265.77Zm3.88-30.16-11.26,11.26a10.43,10.43,0,0,0,14.75,14.75l11.26-11.26Z"
     transform="translate(0.5 0.5)"
     fill="#303f9f"
     id="path3889" />
  <path
     d="M272.29,281.47a.81.81,0,0,1-.61-.23,11.53,11.53,0,0,1-7.06-19.62l12-12,1.84,1.84-.77.77-1.07-1.06L265.4,262.39a10.44,10.44,0,0,0,6.46,17.77.8.8,0,0,1,.62.33.29.29,0,0,0-.2-.11Z"
     transform="translate(0.5 0.5)"
     fill="#303f9f"
     id="path3891" />
  <path
     d="M226.2,301.59l-16.3-16.3,12-12a11.54,11.54,0,0,1,16.3,0h0a11.54,11.54,0,0,1,0,16.3Zm-14.75-16.3L226.2,300l11.26-11.25a10.44,10.44,0,0,0,0-14.75h0a10.42,10.42,0,0,0-14.75,0Z"
     transform="translate(0.5 0.5)"
     fill="#303f9f"
     id="path3893" />
  <path
     d="M226.59,301.2l-.78-.77,11.65-11.64a11.52,11.52,0,0,1,16.29,0,11.38,11.38,0,0,1,3.37,7.83l-1.09,0a10.43,10.43,0,0,0-17.8-7.09Z"
     transform="translate(0.5 0.5)"
     fill="#303f9f"
     id="path3895" />
  <path
     d="M211.06,285.68l-.77-.78,11.64-11.64a10.43,10.43,0,0,0-5.42-17.62l.2-1.08a11.54,11.54,0,0,1,6,19.48Z"
     transform="translate(0.5 0.5)"
     fill="#303f9f"
     id="path3897" />
  <path
     d="M158.52,296.79l-8.05-8.05,1.37-1.37,8.34-.36a14.78,14.78,0,0,0,2.84-.38,3.75,3.75,0,0,0,1.66-.93,2.78,2.78,0,0,0,.9-1.86,2.35,2.35,0,0,0-.77-1.83,2.71,2.71,0,0,0-2.09-.91,3.29,3.29,0,0,0-2.16,1.09l-2-2a5.5,5.5,0,0,1,2.47-1.47,4.79,4.79,0,0,1,2.78.06,6.3,6.3,0,0,1,2.62,1.65,5.7,5.7,0,0,1,1.88,3.62,4.29,4.29,0,0,1-1.42,3.43,5.76,5.76,0,0,1-2.38,1.38,14.8,14.8,0,0,1-3.89.57l-6.06.21,5.56,5.56Z"
     transform="translate(0.5 0.5)"
     fill="#fff"
     id="path3899" />
  <path
     d="M155.33,236.69l-2-2,9.62-9.62L159,223.14l1.67-1.67,6.4,2.95.25.25Z"
     transform="translate(0.5 0.5)"
     fill="#fff"
     id="path3901" />
</svg>
